/vscmnt/brussel_pixiu_data/_data_brussel/112/vsc11236/PredSimResults/SUBJ07mtu3D/worker2.mot
version=1
nRows=10
nColumns=50
inDegrees=yes
endheader
                time	         pelvis_tilt	         pelvis_list	     pelvis_rotation	           pelvis_tx	           pelvis_ty	           pelvis_tz	       hip_flexion_r	     hip_adduction_r	      hip_rotation_r	        knee_angle_r	       ankle_angle_r	         mtp_angle_r	       hip_flexion_l	     hip_adduction_l	      hip_rotation_l	        knee_angle_l	       ankle_angle_l	         mtp_angle_l	    lumbar_extension	      lumbar_bending	     lumbar_rotation	 ercspn_r/activation	 intobl_r/activation	 extobl_r/activation	    abd_r/activation	    add_r/activation	hamstrings_r/activation	bifemsh_r/activation	glut_max_r/activation	iliopsoas_r/activation	rect_fem_r/activation	  vasti_r/activation	gastroc_r/activation	 soleus_r/activation	tib_ant_r/activation	 ercspn_l/activation	 intobl_l/activation	 extobl_l/activation	    abd_l/activation	    add_l/activation	hamstrings_l/activation	bifemsh_l/activation	glut_max_l/activation	iliopsoas_l/activation	rect_fem_l/activation	  vasti_l/activation	gastroc_l/activation	 soleus_l/activation	tib_ant_l/activation	
          1.11698443	         -5.81843999	         -1.10053483	          6.17064910	          1.36272101	          0.88101746	         -0.00603586	         28.88838813	         -3.98859654	        -28.13328822	        -12.02366658	        -17.10547570	          0.53718469	        -14.59713300	         -3.77550834	        -26.73207540	         -7.48404850	        -36.36796815	         58.31573096	         -7.82783403	          0.61234400	        -12.61576928	          0.16507461	          0.11524285	          0.07271715	          0.01000000	          0.10715504	          0.01000001	          0.56663222	          0.00999999	          0.73104761	          0.19296468	          0.00999999	          0.00999999	          0.00999999	          0.23551821	          0.01545109	          0.01000002	          0.01000000	          0.05191560	          0.04648410	          0.11965993	          0.24191169	          0.01352739	          0.68224330	          0.01000015	          0.01000000	          0.21419883	          0.17871442	          0.01000000	
          1.12815428	         -6.08623222	         -0.89639642	          6.44961973	          1.37891945	          0.87814469	         -0.00489852	         28.99853752	         -3.79135815	        -28.26417410	        -13.41973914	        -14.95460204	          1.31090425	        -14.14896802	         -4.38510632	        -27.06914395	         -9.59272246	        -37.35555065	         58.10432195	         -7.48770357	          1.00320119	        -13.18905866	          0.13916676	          0.09715591	          0.06130446	          0.01000000	          0.09033746	          0.01000000	          0.48548611	          0.00999999	          0.61631242	          0.16267959	          0.00999999	          0.01186168	          0.01000000	          0.19855449	          0.05074350	          0.01186166	          0.01000000	          0.04376764	          0.03918859	          0.12902749	          0.20394455	          0.01979624	          0.63438785	          0.01000011	          0.01000002	          0.18058113	          0.16715376	          0.01000000	
          1.13932412	         -6.33759445	         -0.60983731	          6.67584335	          1.39561860	          0.87534101	         -0.00417204	         28.71142392	         -4.15401220	        -28.89508193	        -14.99311672	        -12.40343898	          2.81946212	        -13.69827374	         -4.92514221	        -27.49837632	        -11.79386954	        -38.43110067	         57.33087751	         -7.09893387	          1.37439825	        -13.65270372	          0.11732505	          0.21690081	          0.05168296	          0.01000002	          0.07615933	          0.01489050	          0.40929090	          0.02604834	          0.51958447	          0.13714763	          0.01000000	          0.01000006	          0.09115042	          0.16739210	          0.13502682	          0.01000002	          0.14036348	          0.03689847	          0.03303809	          0.11563164	          0.17193623	          0.01668929	          0.62837096	          0.01000009	          0.00999999	          0.15223959	          0.15169592	          0.01000000	
          1.15049397	         -6.57413898	         -0.38993906	          6.86646928	          1.41238729	          0.87280871	         -0.00343529	         28.22109141	         -4.49040358	        -29.05536223	        -16.36753471	        -10.07769537	          4.88139595	        -13.10139628	         -5.63938103	        -27.98311261	        -14.29000569	        -39.52684428	         55.95436425	         -6.71492846	          1.83259369	        -14.06588141	          0.09891132	          0.20343604	          0.04357151	          0.01564899	          0.06420641	          0.02436288	          0.35501552	          0.05723116	          0.43803762	          0.11562281	          0.00999999	          0.01406996	          0.16052166	          0.14112053	          0.20351569	          0.01000001	          0.19998679	          0.03110739	          0.02785289	          0.11330695	          0.14495149	          0.01406997	          0.59085270	          0.01000007	          0.01186163	          0.12834615	          0.12788781	          0.01000000	
          1.16166381	         -6.80018236	         -0.27926416	          7.02430034	          1.42887189	          0.87083099	         -0.00252508	         27.66362881	         -4.63591351	        -28.68173532	        -17.53873014	         -7.99217593	          7.16306269	        -12.27663167	         -6.60698433	        -28.45274776	        -17.12379896	        -40.74526027	         53.90698684	         -6.37838355	          2.39208673	        -14.46331083	          0.08338756	          0.19549614	          0.03673312	          0.10600240	          0.05412945	          0.02053933	          0.29929730	          0.06490476	          0.36928924	          0.09747624	          0.01000000	          0.01186177	          0.22584165	          0.11897218	          0.26436465	          0.00999999	          0.16859963	          0.02622520	          0.02348148	          0.10339029	          0.12220197	          0.01186174	          0.54771909	          0.01000028	          0.01000000	          0.10820270	          0.10781629	          0.01000000	
          1.17283365	         -7.01666802	         -0.23045873	          7.11559870	          1.44488179	          0.86970007	         -0.00141652	         27.10989445	         -4.65829632	        -28.15446550	        -18.53176002	         -6.35870774	          9.46444541	        -11.23067758	         -7.75790395	        -28.84541141	        -20.16895630	        -42.29497871	         51.10282462	         -6.11224201	          2.98692112	        -14.81783651	          0.07030019	          0.16481375	          0.03096799	          0.16004707	          0.04563404	          0.02537365	          0.25232374	          0.10594531	          0.31133067	          0.08217771	          0.01000000	          0.01000016	          0.28473201	          0.10029994	          0.32653545	          0.00999999	          0.14213855	          0.02210925	          0.01979615	          0.09642004	          0.12204455	          0.01000009	          0.49183065	          0.01000018	          0.00999999	          0.09122069	          0.09089493	          0.00999999	
          1.18400350	         -7.21944109	         -0.21718420	          7.12975290	          1.46033958	          0.86963349	         -0.00015060	         26.59958698	         -4.62018525	        -27.68993631	        -19.39814295	         -5.36882929	         11.80181483	        -10.00890162	         -9.01701309	        -29.06221969	        -23.21019934	        -44.38893124	         47.51311012	         -5.92112606	          3.58187687	        -15.11025626	          0.05926684	          0.13894684	          0.02610768	          0.17081177	          0.03847195	          0.03159109	          0.21272248	          0.13196001	          0.26246848	          0.06928022	          0.01000001	          0.01000004	          0.32455591	          0.08455823	          0.36286743	          0.00999999	          0.11983043	          0.01863929	          0.01668922	          0.10134882	          0.15768679	          0.01000000	          0.42312997	          0.01000013	          0.00999999	          0.07690394	          0.07662930	          0.01000000	
          1.19517334	         -7.40188152	         -0.22234397	          7.06987451	          1.47526463	          0.87065532	          0.00121458	         26.14295539	         -4.55681923	        -27.26929441	        -20.18980827	         -5.03398696	         14.17296910	         -8.68458519	        -10.30106296	        -29.04019571	        -26.06614266	        -46.84929364	         42.94377676	         -5.79861618	          4.15388547	        -15.33314142	          0.04996513	          0.11713965	          0.02201018	          0.17361978	          0.03243393	          0.03790341	          0.17933649	          0.14205524	          0.22127503	          0.05840695	          0.01000050	          0.01000033	          0.34062308	          0.07128713	          0.40476379	          0.01000000	          0.10102349	          0.03006216	          0.01406991	          0.10743859	          0.22715666	          0.01000009	          0.37053087	          0.01000009	          0.00999999	          0.06483415	          0.06460262	          0.11196637	
          1.20634319	         -7.55619697	         -0.24405537	          6.95088118	          1.48976392	          0.87259802	          0.00260985	         25.70955002	         -4.46999472	        -26.85974208	        -20.90287904	         -5.24669603	         16.54032549	         -7.37141426	        -11.53366757	        -28.84315385	        -28.61348556	        -48.99853046	         37.46372541	         -5.72338580	          4.69584268	        -15.49202465	          0.04212329	          0.09875501	          0.01855576	          0.18528397	          0.02734355	          0.04017642	          0.15119031	          0.11976031	          0.18654674	          0.04924020	          0.02647452	          0.04427017	          0.33593464	          0.06009888	          0.42873971	          0.01000000	          0.08516823	          0.05153423	          0.01186169	          0.09191595	          0.20886996	          0.01000000	          0.31237748	          0.01000016	          0.00999999	          0.05465867	          0.05446347	          0.15621159	
          1.21751303	         -7.67805485	         -0.27456111	          6.78502837	          1.50401163	          0.87529341	          0.00399316	         25.23092116	         -4.34556249	        -26.44686236	        -21.45704822	         -5.87507852	         18.84597596	         -6.21223740	        -12.63754653	        -28.65696368	        -30.57156254	        -49.71792948	         32.29317591	         -5.66636461	          5.19251301	        -15.59351791	          0.03551220	          0.08325578	          0.01564350	          0.17641725	          0.02305209	          0.03387116	          0.12746157	          0.10096439	          0.15726893	          0.04151214	          0.04784014	          0.08199784	          0.31728740	          0.05066658	          0.42485893	          0.01000000	          0.07180140	          0.06203899	          0.01000004	          0.11461653	          0.38492748	          0.01000000	          0.30920539	          0.01000025	          0.00999999	          0.04608020	          0.04591563	          0.19804146	
